<svg xmlns="http://www.w3.org/2000/svg" xmlns:xlink="http://www.w3.org/1999/xlink" version="1.1" width="566.93" height="425.2" viewBox="0 0 566.93 425.2">
<defs>
<clipPath id="clip_0">
<path transform="matrix(1,0,0,-1,0,425.2)" d="M0 425.2H566.93V0H0Z"/>
</clipPath>
<path id="font_1_80" d="M.38000489 .35099793 .352005 .4940033 .32400514 .35099793H.38000489M.25100709 .23535156 .22999573 .13183594H.2769928V.045898439H.070999149V.13183594H.117004398L.2290039 .59472659H.16900635V.68066409H.53500369V.59472659H.47499085L.58699038 .13183594H.6329956V.045898439H.42700196V.13183594H.47399903L.45300294 .23535156H.25100709M.43699647 .3046875 .3730011 .59472659H.33099366L.2669983 .3046875H.43699647M.43699647 .21679688 .45100404 .15039063H.40800477V.028320313H.651001V.15039063H.6009979L.4980011 .5761719H.5529938V.69921877H.15100098V.5761719H.20599365L.102996829 .15039063H.052993776V.028320313H.29600526V.15039063H.25300599L.2669983 .21679688H.43699647M.2899933 .3231659 .34599305 .5761719H.3580017L.41400147 .3231659H.2899933M.29000855 .18847656 .28700257 .17773438H.32299806V0H.024993897V.17773438H.08099365L.17100525 .5488281H.1230011V.72753909H.58099368V.5488281H.53300479L.6230011 .17773438H.67900088V0H.3809967V.17773438H.41700746L.41400147 .18847656H.29000855Z"/>
<path id="font_1_13" d="M.66700747 .72753909V.5488281H.621994V0H.42599488L.28100587 .30374146V.17773438H.32699586V0H.035003663V.17773438H.08099365V.5488281H.035003663V.72753909H.28399659L.42300416 .4348297V.5488281H.3769989V.72753909H.66700747M.6210022 .68066409V.59472659H.576004V.045898439H.4560089L.23500061 .50782778V.13183594H.27999879V.045898439H.08099365V.13183594H.1269989V.59472659H.08099365V.68066409H.2539978L.46899415 .23171997V.59472659H.42399598V.68066409H.6210022M.40499879 .69921877V.5761719H.44999696V.3121643L.2659912 .69921877H.06199646V.5761719H.10899353V.15039063H.06199646V.028320313H.29899598V.15039063H.2539978V.42738343L.44400025 .028320313H.59399417V.5761719H.6399994V.69921877H.40499879Z"/>
<path id="font_1_5" d="M.2599945 .28710938H.45100404V.3955078H.2599945V.5761719H.40499879V.4658203H.55400088V.69921877H.06199646V.5761719H.10800171V.15039063H.06199646V.028320313H.33900453V.15039063H.2599945V.28710938M.2420044 .13183594H.32000733V.045898439H.08099365V.13183594H.12600708V.59472659H.08099365V.68066409H.53500369V.484375H.42300416V.59472659H.2420044V.37695313H.43200685V.3046875H.2420044V.13183594M.3769989 .5488281H.28799439V.42285157H.4790039V.25878907H.28799439V.17773438H.3659973V0H.035003663V.17773438H.08000183V.5488281H.035003663V.72753909H.58099368V.4375H.3769989V.5488281Z"/>
<path id="font_1_19" d="M.23500061 .54948428V.39648438H.039993287V.72753909H.68899539V.39648438H.49499513V.54948428H.47099305V.17773438H.522995V0H.20700073V.17773438H.2579956V.54948428H.23500061M.18899536 .59472659V.4423828H.085998538V.68066409H.6430054V.4423828H.54100039V.59472659H.42500306V.13183594H.477005V.045898439H.25300599V.13183594H.30400086V.59472659H.18899536M.28599549 .5761719V.15039063H.23399353V.028320313H.4960022V.15039063H.44299317V.5761719H.5220032V.4248047H.6609955V.69921877H.067993167V.4248047H.20700073V.5761719H.28599549Z"/>
<path id="font_1_18" d="M.44100953 .028320313C.45500694 .028320313 .46800233 .030985514 .47999574 .036315919 .4919993 .04164632 .5026652 .048975629 .5119934 .058303834 .5213318 .06764221 .5286662 .078308109 .5339966 .09030151 .53933718 .10229492 .54200747 .11529032 .54200747 .12928772V.25926209C.54200747 .2765859 .539505 .2909139 .5345001 .3022461 .52950546 .31357829 .51834109 .32424418 .5010071 .33424378L.23800659 .4921875C.2333374 .49552409 .23100281 .50052389 .23100281 .5071869V.5571747C.23100281 .56250509 .23266602 .56700137 .23599243 .57066348 .23932903 .57433578 .2436676 .5761719 .24900818 .5761719H.37001039C.37601219 .5761719 .38067628 .5743306 .3840027 .5706482 .38733927 .56696578 .38900758 .56244406 .38900758 .55708315V.47070313H.54200747V.69921877H.50801089C.49801127 .69921877 .48784385 .69904586 .47750855 .69869998 .46717326 .69836428 .45733644 .6971741 .44799806 .6951294 .43866984 .6930949 .43033854 .6902059 .42300416 .6864624 .41566978 .68272909 .41033427 .6774648 .40699769 .67066958 .4023285 .67814639 .39615885 .6837514 .38848878 .68748477 .38082887 .6912282 .3726654 .6939494 .3639984 .6956482 .35533143 .697347 .34666444 .69836428 .33799745 .69869998 .32933045 .69904586 .32132975 .69921877 .31399537 .69921877H.17900086C.16433208 .69921877 .15082805 .6965535 .13848877 .69122317 .12615967 .68589279 .115493778 .67855837 .10649109 .66922 .09749857 .6598918 .09049988 .6492259 .085494998 .6372223 .08050028 .6252289 .07800293 .61223348 .07800293 .5982361V.46627809C.07800293 .44828288 .080835979 .43361918 .086502078 .422287 .092168178 .4109548 .103001918 .4002889 .119003299 .3902893L.3639984 .23632813C.3666636 .23497518 .36849467 .23295085 .36949159 .23025513 .37049867 .2275594 .3710022 .2248637 .3710022 .22216797V.16960144C.3710022 .16421 .3693339 .15965779 .3659973 .15594483 .3626709 .15224202 .3583374 .15039063 .35299684 .15039063H.2480011C.2426707 .15039063 .23850505 .15223186 .23550415 .1559143 .23250325 .15959676 .23100281 .16411846 .23100281 .16947937V.2548828H.07800293V.028320313H.11100769C.1203359 .028320313 .1303304 .028483073 .14099121 .028808594 .15166219 .029144288 .16166179 .030293784 .17098999 .03225708 .18032837 .03423055 .18866475 .037022909 .19599915 .040634157 .20333354 .044245405 .20866902 .049331666 .21200562 .055892946 .2166748 .048670453 .22250875 .043253583 .22950745 .039642335 .23650615 .036031087 .2440033 .033406576 .2519989 .0317688 .26000468 .030131022 .26783753 .029144288 .27549745 .028808594 .2831675 .028483073 .29066978 .028320313 .29800416 .028320313H.44100953M.29499818 .045898439C.28900657 .045898439 .28234355 .0460612 .27500917 .04638672 .26767478 .046722413 .26034037 .04822286 .25300599 .05088806 .24567159 .053553266 .23816936 .057881673 .23049927 .06387329 .22283936 .069875087 .2160085 .07820638 .21000672 .08886719 .20533753 .07687378 .19916789 .06804403 .1914978 .06237793 .18383789 .056722005 .17533875 .052561445 .16600037 .04989624 .15666199 .047231039 .14716085 .045898439 .13749695 .045898439 .12783306 .045898439 .11899821 .045898439 .11099243 .045898439H.09599304V.23632813H.21200562V.17001343C.21200562 .16063436 .21533711 .15192668 .22200012 .14389038 .2286733 .13585408 .23734029 .13183594 .2480011 .13183594H.35299684C.36299644 .13183594 .37166343 .13549805 .3789978 .14282227 .38633219 .15015666 .3899994 .15915935 .3899994 .16983032V.22180176C.3899994 .22714234 .38849894 .23264058 .38549806 .23829651 .38249717 .2439626 .3783315 .24846395 .3730011 .25180055H.37399293L.1289978 .40574647C.11633301 .41374208 .107666019 .4222361 .102996829 .43122865 .09832764 .44023133 .09599304 .45173136 .09599304 .46572877V.59768679C.09599304 .62035116 .10382589 .6398468 .11949158 .6561737 .13515727 .6725006 .1549937 .68066409 .17900086 .68066409H.31799317C.32399497 .68066409 .3311615 .6804962 .3394928 .6801605 .34783427 .679835 .35617066 .6785024 .36450196 .6761627 .37283326 .6738332 .3809967 .67000326 .3889923 .66467288 .39699809 .65934249 .40400187 .65168258 .41000367 .6416931 .41533409 .65168258 .42183433 .65934249 .4295044 .66467288 .43717448 .67000326 .44550578 .6738332 .4544983 .6761627 .46350099 .6785024 .47283427 .679835 .48249818 .6801605 .49217225 .6804962 .5010071 .68066409 .5090027 .68066409L.5240021 .6816406V.49023438H.40699769V.5569153C.40699769 .5662028 .4036611 .57482406 .39698792 .58277896 .39032493 .590744 .3813273 .59472659 .36999513 .59472659H.24900818C.23900859 .59472659 .2303416 .5910594 .2230072 .583725 .2156728 .57640078 .21200562 .56740316 .21200562 .5567322V.50675967C.21200562 .49942527 .21366883 .49342347 .21699524 .48875428 .22033184 .48409526 .22433472 .48009745 .2290039 .47676087L.4909973 .31881715C.5043335 .31082154 .51316836 .30215455 .51750186 .29281617 .5218353 .28348796 .5240021 .27216087 .5240021 .25883485V.12887573C.5240021 .10621134 .51583358 .0867157 .49949647 .070388797 .48316957 .05406189 .46367393 .045898439 .44100953 .045898439H.29499818M.29800416 0C.28333537 0 .26833598 .00083414718 .25300599 .0025024415 .23767598 .004170736 .2240092 .009668986 .21200562 .018997193 .20133464 .0103302 .18766785 .0049947106 .17100525 .0029907227 .15434265 .0009969076 .13434346 0 .11100769 0H.05000305V.28320313H.23699951L.104003909 .3672638C.08267212 .38061015 .06833903 .39445497 .06100464 .40879823 .053670248 .42314149 .05000305 .44232179 .05000305 .4663391V.59843447C.05000305 .61578878 .053166707 .6323039 .05949402 .64797976 .065831508 .6636556 .07483419 .6773326 .086502078 .6890106 .09816996 .70068868 .111836757 .71002706 .12750244 .71702578 .14316814 .7240346 .16033428 .72753909 .17900086 .72753909H.31600953C.32933555 .72753909 .34483338 .7267049 .36250306 .7250366 .38017274 .72336837 .39500938 .7182007 .40701295 .7095337 .41900636 .7175293 .43266807 .7225291 .44799806 .7245331 .46333824 .72653707 .4833425 .72753909 .50801089 .72753909H.5700073V.4423828H.37399293L.5149994 .35749818C.53767397 .34418235 .55251058 .3302002 .5595093 .31555177 .566508 .30091349 .5700073 .28194175 .5700073 .25863648V.1288147C.5700073 .11151123 .566508 .09503683 .5595093 .07939148 .55251058 .06374613 .5431773 .050094606 .5315094 .03843689 .5198415 .026789347 .50617477 .017471314 .49050904 .010482788 .47484336 .0034942628 .4583435 0 .44100953 0H.29800416M.2590027 .51283267 .36099244 .45083619V.5488281H.2590027V.51283267M.2590027 .17773438H.34399415V.21586609L.2590027 .27005006V.17773438Z"/>
<clipPath id="clip_2">
<path transform="matrix(1,0,0,-1,0,425.2)" d="M0 425.2H566.93V0H0Z"/>
</clipPath>
<path id="font_1_24" d="M.47999574 .028320313V.15039063H.42999269V.24656677L.5950012 .5761719H.6450043V.69921877H.3999939V.5761719H.43899537L.34899903 .37117005 .2590027 .5761719H.29800416V.69921877H.052993776V.5761719H.102996829L.26800538 .24656677V.15039063H.21800232V.028320313H.47999574M.19000244 0V.17773438H.24099732V.24075318L.084991458 .5488281H.024993897V.72753909H.32600404V.5488281H.30200196L.34899903 .4378357 .3959961 .5488281H.37199403V.72753909H.67300418V.5488281H.6130066L.45700074 .24075318V.17773438H.5079956V0H.19000244M.23599243 .045898439V.13183594H.28700257V.25080873L.11500549 .59472659H.072006229V.68066409H.27900697V.59472659H.23100281L.34899903 .3247223 .46699525 .59472659H.41900636V.68066409H.6260071V.59472659H.5830078L.41099549 .25080873V.13183594H.46200563V.045898439H.23599243Z"/>
<path id="font_3_55" d="M.11500549 .1328125V.59375H.037994386V.7265625H.27999879V.1328125H.3600006V0H.035003663V.1328125H.11500549Z"/>
<path id="font_3_52" d="M.51600649 .31933595H.6309967V.19433594H.51600649V.1328125H.59199526V0H.2669983V.1328125H.35099793V.19433594H.08000183L-.007003784 .27920533 .2480011 .7265625H.58399966V.63972476C.58399966 .6257579 .5770009 .61528018 .56300356 .6082916 .54900619 .6013031 .53334048 .59647628 .51600649 .59381106V.31933595M.35099793 .31933595V.6186218L.19500733 .31880189 .35099793 .31933595Z"/>
</defs>
<g id="layer_1" data-name="—ÎÓÈ_1">
<g clip-path="url(#clip_0)">
<path transform="matrix(1,0,0,-1,518.5137,182.04251)" d="M0 0-3.571-36.085-3.741-37.899-3.855-39.089-4.875-39.742-6.406-40.734-14.57-46.006-18.652-54.798-21.997-88.752-22.195-90.737-22.309-92.069-23.499-92.721-25.257-93.657-33.563-98.164-34.554-98.703-35.178-99.042-35.943-98.986-37.077-98.873-48.643-97.852-42.491-112.819-40.082-118.744-38.466-122.683-42.689-122.173-49.039-121.436-64.545-119.565C-69.761-118.942-74.749-118.403-79.483-117.893-84.558-117.354-89.404-116.844-94.054-116.418-98.447-115.994-103.322-115.569-108.652-115.143-113.726-114.718-118.715-114.322-123.619-113.981L-127.247-113.726-127.275-113.783-128.437-114.208-130.224-114.832-232.951-151.143-234.227-151.597-235.049-151.88-235.871-151.597-237.118-151.143-339.874-114.832-341.631-114.208-342.822-113.783-342.85-113.726-346.479-113.981C-351.383-114.322-356.372-114.718-361.446-115.143-366.775-115.569-371.65-115.994-376.044-116.418-380.693-116.844-385.54-117.354-390.614-117.893-395.348-118.403-400.337-118.942-405.553-119.565L-420.321-121.323-426.359-122.06-430.384-122.542-429.023-118.715-426.954-112.989H-426.926L-421.483-97.852-433.021-98.873-434.154-98.986-434.891-99.042-435.543-98.703-436.535-98.164-444.841-93.657-446.598-92.721-449.789-92.069-454.211-47.027-453.713-47.168-455.527-46.006-463.691-40.734-465.222-39.742-466.242-39.089-466.356-37.899-466.526-36.085-470.098-.028-470.466 3.713-470.721 6.208-468.227 6.463-464.485 6.832C-456.832 7.568-449.121 8.334-441.326 9.042-432.907 9.836-425.48 10.517-419.215 11.083-412.752 11.622-406.12 12.189-399.288 12.756-393.76 13.181-388.12 13.635-382.365 14.06L-387.297 30.076-388.658 34.441-389.565 37.36-386.504 37.672-381.94 38.154-313.88 45.014C-313.71 45.921-313.483 46.8-313.171 47.679-312.633 49.238-311.896 50.797-310.932 52.384-309.968 54-308.806 55.644-307.389 57.373-306.028 59.074-304.441 60.832-302.655 62.702-301.663 63.723-300.671 64.715-299.622 65.707-298.573 66.671-297.496 67.635-296.39 68.542-295.37 69.42-294.208 70.328-292.989 71.263-291.883 72.057-290.75 72.879-289.559 73.701L-289.502 73.729-289.275 73.899-288.992 74.098-288.964 74.126-288.737 74.268-288.454 74.466-287.801 74.891H-287.773L-287.461 75.09-287.405 75.146-287.376 75.175-287.178 75.288-286.895 75.487-286.271 75.855-285.959 76.054-285.874 76.11-285.817 76.139-285.534 76.309-284.938 76.677H-284.91L-284.854 76.706-284.825 76.762-284.542 76.904-284.258 77.074-283.833 77.329-283.805 77.357-283.521 77.527-283.039 77.783-282.472 78.123H-282.444L-282.387 78.151-282.359 78.18-282.019 78.35-281.735 78.52-281.168 78.832-281.083 78.86-281.055 78.888-281.027 78.917-280.715 79.086-280.459 79.229-279.694 79.597V79.625L-279.042 79.937-277.823 80.589V80.561L-275.839 81.553-275.811 81.524-275.074 81.893V81.865H-275.045L-274.932 81.921-274.592 82.063-274.563 82.091-274.139 82.29H-274.082L-274.053 82.318-273.883 82.375C-270.822 83.735-267.675 84.954-264.416 86.003-261.241 87.023-257.981 87.902-254.693 88.639-251.461 89.32-248.173 89.858-244.828 90.227-241.568 90.567-238.309 90.765-235.049 90.765-231.789 90.765-228.529 90.567-225.27 90.227-221.896 89.858-218.607 89.32-215.404 88.639-212.088 87.902-208.856 87.023-205.682 86.003-202.422 84.954-199.247 83.735-196.214 82.375L-196.044 82.318-196.016 82.29H-195.959L-195.534 82.091-195.506 82.063-195.165 81.921-195.052 81.865H-195.023V81.893L-194.258 81.524V81.553L-192.273 80.561V80.589L-191.055 79.937-190.403 79.625V79.597L-189.638 79.229-189.383 79.086-189.07 78.917-189.042 78.888H-189.014V78.86L-188.929 78.832H-188.9L-188.334 78.491-188.05 78.35-187.71 78.151-187.682 78.123H-187.653-187.625L-187.029 77.783-186.576 77.527-186.293 77.357-186.265 77.329-185.811 77.074-185.556 76.904-185.272 76.762-185.244 76.706-185.187 76.677H-185.159L-184.563 76.309-184.28 76.139-184.224 76.11-184.139 76.054-183.827 75.855-183.203 75.487-182.92 75.288-182.721 75.175-182.692 75.146-182.636 75.09-182.324 74.891H-182.296L-181.7 74.495-181.049 74.069-180.794 73.899-179.688 73.162V73.105C-178.81 72.482-177.931 71.858-177.108 71.263-175.861 70.328-174.728 69.42-173.707 68.542-172.602 67.635-171.524 66.671-170.476 65.707-169.427 64.715-168.435 63.723-167.442 62.702-165.656 60.832-164.069 59.074-162.709 57.373-161.291 55.644-160.129 54-159.165 52.384-158.201 50.797-157.465 49.238-156.926 47.679-156.614 46.8-156.388 45.921-156.217 45.014L-88.157 38.154-83.565 37.672-80.532 37.36-81.439 34.441-82.771 30.076-87.761 13.946C-82.006 13.521-76.365 13.096-70.866 12.643-64.091 12.104-57.458 11.537-50.91 10.999-44.815 10.46-37.389 9.808-28.885 9.014-21.175 8.334-13.408 7.597-5.641 6.86L-1.871 6.491 .624 6.265 .368 3.742Z" fill="#e4e5eb"/>
<path transform="matrix(1,0,0,-1,518.5137,182.04251)" stroke-width="1" stroke-linecap="butt" stroke-miterlimit="10" stroke-linejoin="miter" fill="none" stroke="#111617" d="M0 0-3.571-36.085-3.741-37.899-3.855-39.089-4.875-39.742-6.406-40.734-14.57-46.006-18.652-54.798-21.997-88.752-22.195-90.737-22.309-92.069-23.499-92.721-25.257-93.657-33.563-98.164-34.554-98.703-35.178-99.042-35.943-98.986-37.077-98.873-48.643-97.852-42.491-112.819-40.082-118.744-38.466-122.683-42.689-122.173-49.039-121.436-64.545-119.565C-69.761-118.942-74.749-118.403-79.483-117.893-84.558-117.354-89.404-116.844-94.054-116.418-98.447-115.994-103.322-115.569-108.652-115.143-113.726-114.718-118.715-114.322-123.619-113.981L-127.247-113.726-127.275-113.783-128.437-114.208-130.224-114.832-232.951-151.143-234.227-151.597-235.049-151.88-235.871-151.597-237.118-151.143-339.874-114.832-341.631-114.208-342.822-113.783-342.85-113.726-346.479-113.981C-351.383-114.322-356.372-114.718-361.446-115.143-366.775-115.569-371.65-115.994-376.044-116.418-380.693-116.844-385.54-117.354-390.614-117.893-395.348-118.403-400.337-118.942-405.553-119.565L-420.321-121.323-426.359-122.06-430.384-122.542-429.023-118.715-426.954-112.989H-426.926L-421.483-97.852-433.021-98.873-434.154-98.986-434.891-99.042-435.543-98.703-436.535-98.164-444.841-93.657-446.598-92.721-449.789-92.069-454.211-47.027-453.713-47.168-455.527-46.006-463.691-40.734-465.222-39.742-466.242-39.089-466.356-37.899-466.526-36.085-470.098-.028-470.466 3.713-470.721 6.208-468.227 6.463-464.485 6.832C-456.832 7.568-449.121 8.334-441.326 9.042-432.907 9.836-425.48 10.517-419.215 11.083-412.752 11.622-406.12 12.189-399.288 12.756-393.76 13.181-388.12 13.635-382.365 14.06L-387.297 30.076-388.658 34.441-389.565 37.36-386.504 37.672-381.94 38.154-313.88 45.014C-313.71 45.921-313.483 46.8-313.171 47.679-312.633 49.238-311.896 50.797-310.932 52.384-309.968 54-308.806 55.644-307.389 57.373-306.028 59.074-304.441 60.832-302.655 62.702-301.663 63.723-300.671 64.715-299.622 65.707-298.573 66.671-297.496 67.635-296.39 68.542-295.37 69.42-294.208 70.328-292.989 71.263-291.883 72.057-290.75 72.879-289.559 73.701L-289.502 73.729-289.275 73.899-288.992 74.098-288.964 74.126-288.737 74.268-288.454 74.466-287.801 74.891H-287.773L-287.461 75.09-287.405 75.146-287.376 75.175-287.178 75.288-286.895 75.487-286.271 75.855-285.959 76.054-285.874 76.11-285.817 76.139-285.534 76.309-284.938 76.677H-284.91L-284.854 76.706-284.825 76.762-284.542 76.904-284.258 77.074-283.833 77.329-283.805 77.357-283.521 77.527-283.039 77.783-282.472 78.123H-282.444L-282.387 78.151-282.359 78.18-282.019 78.35-281.735 78.52-281.168 78.832-281.083 78.86-281.055 78.888-281.027 78.917-280.715 79.086-280.459 79.229-279.694 79.597V79.625L-279.042 79.937-277.823 80.589V80.561L-275.839 81.553-275.811 81.524-275.074 81.893V81.865H-275.045L-274.932 81.921-274.592 82.063-274.563 82.091-274.139 82.29H-274.082L-274.053 82.318-273.883 82.375C-270.822 83.735-267.675 84.954-264.416 86.003-261.241 87.023-257.981 87.902-254.693 88.639-251.461 89.32-248.173 89.858-244.828 90.227-241.568 90.567-238.309 90.765-235.049 90.765-231.789 90.765-228.529 90.567-225.27 90.227-221.896 89.858-218.607 89.32-215.404 88.639-212.088 87.902-208.856 87.023-205.682 86.003-202.422 84.954-199.247 83.735-196.214 82.375L-196.044 82.318-196.016 82.29H-195.959L-195.534 82.091-195.506 82.063-195.165 81.921-195.052 81.865H-195.023V81.893L-194.258 81.524V81.553L-192.273 80.561V80.589L-191.055 79.937-190.403 79.625V79.597L-189.638 79.229-189.383 79.086-189.07 78.917-189.042 78.888H-189.014V78.86L-188.929 78.832H-188.9L-188.334 78.491-188.05 78.35-187.71 78.151-187.682 78.123H-187.653-187.625L-187.029 77.783-186.576 77.527-186.293 77.357-186.265 77.329-185.811 77.074-185.556 76.904-185.272 76.762-185.244 76.706-185.187 76.677H-185.159L-184.563 76.309-184.28 76.139-184.224 76.11-184.139 76.054-183.827 75.855-183.203 75.487-182.92 75.288-182.721 75.175-182.692 75.146-182.636 75.09-182.324 74.891H-182.296L-181.7 74.495-181.049 74.069-180.794 73.899-179.688 73.162V73.105C-178.81 72.482-177.931 71.858-177.108 71.263-175.861 70.328-174.728 69.42-173.707 68.542-172.602 67.635-171.524 66.671-170.476 65.707-169.427 64.715-168.435 63.723-167.442 62.702-165.656 60.832-164.069 59.074-162.709 57.373-161.291 55.644-160.129 54-159.165 52.384-158.201 50.797-157.465 49.238-156.926 47.679-156.614 46.8-156.388 45.921-156.217 45.014L-88.157 38.154-83.565 37.672-80.532 37.36-81.439 34.441-82.771 30.076-87.761 13.946C-82.006 13.521-76.365 13.096-70.866 12.643-64.091 12.104-57.458 11.537-50.91 10.999-44.815 10.46-37.389 9.808-28.885 9.014-21.175 8.334-13.408 7.597-5.641 6.86L-1.871 6.491 .624 6.265 .368 3.742 0 0Z"/>
<path transform="matrix(1,0,0,-1,137.1973,150.23783)" d="M0 0 43.54-140.826 146.268-177.166 248.995-140.826 292.535 0 146.268 14.797Z" fill="#16456c" fill-rule="evenodd"/>
<path transform="matrix(1,0,0,-1,150.2085,158.85501)" d="M0 0 2.522-8.192 133.115 5.017H133.256 133.398L263.991-8.192 266.513 0 133.256 13.464Z" fill="#1a984b"/>
<path transform="matrix(1,0,0,-1,210.5864,140.7417)" d="M0 0V.028ZM145.786 0Z" fill="#1a0001" fill-rule="evenodd"/>
<path transform="matrix(1,0,0,-1,220.394,157.74951)" d="M0 0C13.805-14.428 37.786-26.079 63.071-26.079 88.356-26.079 112.337-14.428 126.142 0 130.309 4.394 136.12 10.658 135.978 16.979 135.978 23.584 130.394 29.509 126.142 33.987 112.337 48.444 88.356 60.094 63.071 60.094 37.786 60.094 13.805 48.444 0 33.987-6.661 27.014-9.95 22.025-9.836 17.008-9.836 10.403-4.252 4.507 0 0" fill="#e4e5eb" fill-rule="evenodd"/>
<path transform="matrix(1,0,0,-1,210.5864,140.7417)" d="M0 0V-.057ZM145.786-.028V0Z" fill="#1a0001" fill-rule="evenodd"/>
<path transform="matrix(1,0,0,-1,512.3057,181.53221)" d="M0 0-3.6-36.085C-6.321-37.843-9.042-39.6-11.764-41.357L-18.591-54.049-21.996-88.781C-24.774-90.255-27.553-91.758-30.33-93.26L-52.157-91.332-42.095-115.823-57.6-113.981C-77.357-111.628-97.114-109.786-116.957-108.34L-126.057-107.688-125.659-101.169C-194.088-97.738-263.65-97.738-332.022-101.169L-331.625-107.688-340.724-108.34C-360.567-109.786-380.324-111.628-400.082-113.981L-414.85-115.738-406.062-91.36-427.351-93.26C-430.129-91.758-434.907-90.255-437.656-88.781L-442.39-40.791-445.918-41.357C-448.639-39.6-451.36-37.843-454.082-36.085L-457.653-.028C-378.17 7.852-301.833 13.323-225.496 13.153-151.313 12.982-77.103 7.342 0 0" fill="#16456c" fill-rule="evenodd"/>
<path transform="matrix(1,0,0,-1,317.9062,120.4458)" d="M0 0C-1.503 .369-2.977 .737-4.479 1.077-4.649-.283-4.791-1.616-4.961-2.976-5.783-2.806-6.634-2.665-7.455-2.495-9.156-2.183-10.829-1.871-12.501-1.559-12.303-.198-12.133 1.162-11.906 2.523-13.521 2.807-15.138 3.062-16.753 3.26-17.036 3.317-17.32 3.345-17.604 3.374-17.688 1.956-17.773 .567-17.83-.85-18.652-.793-19.503-.708-20.325-.624-21.997-.482-23.67-.34-25.37-.17-25.257 1.276-25.115 2.693-25.002 4.139-26.986 4.28-28.971 4.394-30.983 4.451V0H-33.449-38.495C-38.466 1.474-38.41 2.977-38.353 4.451-40.366 4.394-42.378 4.28-44.363 4.139-44.306 2.693-44.221 1.276-44.164-.17-45.836-.34-47.538-.482-49.21-.624-50.06-.708-50.882-.793-51.704-.85-51.732 .567-51.761 1.956-51.789 3.374-52.073 3.345-52.328 3.317-52.611 3.26-54.255 3.062-55.899 2.807-57.515 2.523-57.345 1.162-57.204-.198-57.062-1.559-58.763-1.871-60.435-2.183-62.136-2.495-62.986-2.665-63.808-2.806-64.659-2.976-64.772-1.616-64.885-.283-64.999 1.049-66.501 .709-68.003 .369-69.506 0-69.563 1.105-69.647 2.239-69.704 3.345-69.761 4.451-69.846 5.584-69.903 6.69-68.429 7.087-66.983 7.427-65.509 7.767-65.565 8.618-65.623 9.439-65.679 10.262-65.736 11.083-65.792 11.934-65.821 12.756-64.205 13.068-62.618 13.38-61.002 13.72-60.236 13.861-59.443 14.032-58.649 14.173-58.592 13.351-58.536 12.529-58.451 11.736-58.366 10.914-58.281 10.091-58.195 9.27-56.268 9.638-54.284 9.95-52.328 10.205-52.186 10.233-52.044 10.233-51.903 10.262-51.903 11.083-51.931 11.877-51.931 12.699V15.137C-50.344 15.279-48.756 15.42-47.197 15.591-46.403 15.647-45.638 15.732-44.873 15.817-44.844 15.024-44.788 14.23-44.759 13.437-44.731 12.643-44.703 11.849-44.674 11.055-42.492 11.225-40.309 11.339-38.126 11.396-38.07 12.955-38.041 14.514-37.984 16.073-37.219 16.044-36.426 16.044-35.66 16.044V16.073C-34.073 16.044-32.514 16.044-30.927 16.044-30.955 14.514-30.955 12.955-30.955 11.396-28.771 11.339-26.617 11.225-24.463 11.055-24.406 11.849-24.321 12.643-24.265 13.437-24.236 14.23-24.151 15.024-24.095 15.817-23.329 15.732-22.564 15.647-21.799 15.591-20.211 15.42-18.624 15.279-17.064 15.137-17.093 14.315-17.121 13.521-17.15 12.699-17.179 11.877-17.235 11.083-17.264 10.262-17.121 10.262-16.951 10.233-16.781 10.205-14.854 9.95-12.898 9.638-10.971 9.27-10.886 10.091-10.771 10.914-10.658 11.736-10.573 12.558-10.46 13.351-10.347 14.173-9.581 14.032-8.816 13.861-8.022 13.72-6.435 13.38-4.848 13.068-3.231 12.756-3.316 11.934-3.402 11.112-3.487 10.262-3.572 9.439-3.657 8.618-3.742 7.795-2.296 7.455-.822 7.087 .623 6.718 .51 5.584 .425 4.479 .312 3.345 .198 2.239 .085 1.134 0 0" fill="#16456c"/>
<path transform="matrix(1,0,0,-1,346.5361,123.76221)" d="M0 0C-4.394 4.592-9.809 8.901-15.987 12.671-17.519 11.055-17.688 6.095-14.514-6.009-31.38-34.356-80.504-39.43-106.64-37.842-93.572-43.143-78.52-46.46-63.071-46.46-39.062-46.46-11.282-38.693 7.427-22.932 8.078-22.365 8.617-21.798 9.014-21.175 9.524-20.381 9.694-19.162 9.779-18.255 10.488-10.999 4.422-4.621 0 0" fill="#1a984b" fill-rule="evenodd"/>
<path transform="matrix(1,0,0,-1,341.5752,158.06153)" d="M0 0C-4.733-1.757-9.723-3.345-14.91-4.706-10.715 7.059-11.962 38.495-18.681 51.109-12.444 48.104-6.746 44.476-1.814 40.507 2.268 28.999 3.033 5.868 0 0" fill="#16456c"/>
<path transform="matrix(1,0,0,-1,225.3545,158.06153)" d="M0 0C4.734-1.757 9.723-3.345 14.911-4.706 10.715 7.059 11.962 38.495 18.681 51.109 12.444 48.104 6.747 44.476 1.814 40.507-2.268 28.999-3.033 5.868 0 0" fill="#16456c"/>
<path transform="matrix(1,0,0,-1,220.394,157.74951)" d="M0 0C13.805-14.428 37.786-26.079 63.071-26.079 88.356-26.079 112.337-14.428 126.142 0 131.443 5.556 134.589 9.836 135.61 13.89L135.297 13.606C119.508-.851 92.042-12.473 63.071-12.473 34.101-12.473 6.633-.851-9.156 13.606L-9.468 13.89C-8.447 9.836-5.301 5.556 0 0" fill="#0d1524" fill-rule="evenodd"/>
<path transform="matrix(1,0,0,-1,399.3174,249.33692)" d="M0 0-1.39 .113-3.317-30.189C17.489-31.691 37.502-33.591 56.466-35.83L50.003-20.098 58.563-6.463C39.911-4.28 20.296-2.438-.058-.964ZM-230.315 .113-231.705 0-231.647-.964C-252.029-2.438-271.616-4.28-290.296-6.463L-282.444-19.984-288.17-35.83C-269.207-33.591-249.194-31.691-228.388-30.189Z" fill="#1a984b" fill-rule="evenodd"/>
<path transform="matrix(1,0,0,-1,150.605,247.49411)" d="M0 0 2.438 .17 3.77-18.426-4.507-.737Z" fill="#16456c" fill-rule="evenodd"/>
<path transform="matrix(1,0,0,-1,176.9106,274.42384)" d="M0 0-5.726 1.616-11.707 1.304-16.072 1.049-19.361 .822-1.587-2.777Z" fill="#16456c" fill-rule="evenodd"/>
<path transform="matrix(1,0,0,-1,416.3535,247.49411)" d="M0 0-2.438 .17-3.799-18.426 4.507-.737Z" fill="#16456c" fill-rule="evenodd"/>
<path transform="matrix(1,0,0,-1,390.0479,274.42384)" d="M0 0 5.726 1.616 11.679 1.304 16.072 1.049 19.36 .822 1.587-2.777Z" fill="#16456c" fill-rule="evenodd"/>
<path transform="matrix(1,0,0,-1,303.3203,281.30473)" d="M0 0 1.719-3.557 5.646-4.09 2.786-6.832 3.482-10.729 0-8.862-3.482-10.729-2.786-6.832-5.646-4.09-1.719-3.557Z" fill="#1a984b" fill-rule="evenodd"/>
<path transform="matrix(1,0,0,-1,266.9194,281.30473)" d="M0 0 1.719-3.557 5.646-4.09 2.786-6.832 3.482-10.729 0-8.862-3.482-10.729-2.786-6.832-5.646-4.09-1.719-3.557Z" fill="#1a984b" fill-rule="evenodd"/>
<path transform="matrix(1,0,0,-1,285.1201,278.2373)" d="M0 0 1.719-3.557 5.646-4.09 2.786-6.831 3.482-10.729 0-8.861-3.483-10.729-2.786-6.831-5.646-4.09-1.719-3.557Z" fill="#1a984b" fill-rule="evenodd"/>
<path transform="matrix(1,0,0,-1,414.1992,243.21392)" d="M0 0C-41.103 2.664-85.068 4.11-130.734 4.11-176.4 4.11-220.366 2.664-261.468 0L-259.257-30.529C-218.778-27.979-175.606-26.589-130.734-26.589-85.862-26.589-42.69-27.979-2.212-30.529Z" fill="#1a984b" fill-rule="evenodd"/>
<path transform="matrix(1,0,0,-1,378.1426,266.88383)" d="M0 0 13.294-.566 13.492 3.969 5.896 4.309 6.576 20.523 .906 20.778ZM-25.626 .964-12.331 .539-12.189 5.103-19.786 5.329-19.276 21.572-24.974 21.742ZM-47.027 19.105-45.128 9.837-49.408 9.922ZM-56.948 1.814-51.534 1.673-50.485 5.727-44.249 5.585-43.427 1.503-37.475 1.361-42.492 22.28-51.024 22.479ZM-79.966 14.599-79.909 18.936-74.608 18.907-73.899 18.142-73.928 15.251-74.608 14.542ZM-80.022 6.01-79.994 10.715-74.58 10.658-73.899 9.95-73.928 6.719-74.693 5.953ZM-85.776 2.098-71.15 1.984-68.23 4.848-68.174 10.148-70.583 12.614-68.202 14.938-68.146 19.871-71.008 22.791-85.606 22.904ZM-109.446 2.041-103.72 2.069-103.805 18.284-98.221 18.312-98.25 22.904-115.087 22.819-115.059 18.228-109.531 18.256ZM-137.906 5.868-138.955 6.889-139.097 17.264-138.076 18.284-133.768 18.341-132.747 17.349-132.605 6.974-133.597 5.925ZM-141.421 1.645-130.025 1.786-126.851 5.018-127.049 19.446-130.309 22.593-141.705 22.423-144.851 19.19-144.652 4.791ZM-168.662 5.018-169.71 5.981-170.136 16.356-169.144 17.405-164.835 17.575-163.758 16.611-163.361 6.236-164.353 5.159ZM-172.063 .681-160.668 1.134-157.579 4.451-158.117 18.851-161.462 21.912-172.857 21.459-175.918 18.142-175.38 3.742ZM-201.601-.538-195.903-.283-196.243 7.54-188.561 7.881-188.731 12.161-196.413 11.82-196.611 16.187-188.051 16.555-188.25 20.863-202.479 20.239Z" fill="#e4e5eb"/>
</g>
<use data-text="A" xlink:href="#font_1_80" transform="matrix(65.7407,-6.3811,-6.3811,-65.7407,108.1851,239.35822)" fill="#e4e5eb"/>
<use data-text="N" xlink:href="#font_1_13" transform="matrix(65.916,-4.1991,-4.1991,-65.916,153.8999,234.9461)" fill="#e4e5eb"/>
<use data-text="F" xlink:href="#font_1_5" transform="matrix(66.0049,-2.4302,-2.4302,-66.0049,199.5547,232.07212)" fill="#e4e5eb"/>
<use data-text="A" xlink:href="#font_1_80" transform="matrix(66.0441,-.8521,-.8521,-66.0441,236.5679,230.62972)" fill="#e4e5eb"/>
<use data-text="N" xlink:href="#font_1_13" transform="matrix(66.0424,.9791,.9791,-66.0424,282.5635,230.0281)" fill="#e4e5eb"/>
<use data-text="T" xlink:href="#font_1_19" transform="matrix(65.9861,2.8954,2.8954,-65.9861,328.2905,230.67952)" fill="#e4e5eb"/>
<use data-text="A" xlink:href="#font_1_80" transform="matrix(65.8767,4.7758,4.7758,-65.8767,372.7642,232.58481)" fill="#e4e5eb"/>
<use data-text="S" xlink:href="#font_1_18" transform="matrix(65.7059,6.7297,6.7297,-65.7059,418.356,235.91481)" fill="#e4e5eb"/>
<g clip-path="url(#clip_2)">
<use data-text="F" xlink:href="#font_1_5" transform="matrix(65.4331,-9.0037,-13.0799,-95.0561,74.6952,263.8214)" fill="#e4e5eb"/>
<use data-text="Y" xlink:href="#font_1_24" transform="matrix(65.1816,10.6728,15.5046,-94.6908,453.2575,262.01814)" fill="#e4e5eb"/>
</g>
<use data-text="1" xlink:href="#font_3_55" transform="matrix(25.7969,0,0,-25.7969,271.3179,315.198)" fill="#e4e5eb"/>
<use data-text="4" xlink:href="#font_3_52" transform="matrix(25.7969,0,0,-25.7969,280.94017,315.198)" fill="#e4e5eb"/>
</g>
</svg>
